# xmcd
#
# Track frame offsets:
#	150
#	14335
#	32952
#	65587
#
# Disc length: 1025 seconds
#
# Revision: 1
# Processed by: cddbd v1.5PL3 Copyright (c) Steve Scherf et al.
# Submitted via: CDex 1.50Beta5
#
DISCID=3003ff04
DTITLE=pre-school - ROCK AND ROLL HIGH SCHOOL
DYEAR=2001
DGENRE=Rock
TTITLE0=ROCK AND ROLL HIGH SCHOOL(raw)
TTITLE1=ROCK AND ROLL HIGH SCHOOL(grilled)
TTITLE2=ROCK AND ROLL HIGH SCHOOL(Hardfloor remix)
TTITLE3=ROCK AND ROLL HIGH SCHOOL
EXTD=
EXTT0=
EXTT1=
EXTT2=
EXTT3=
PLAYORDER=
